# xmcd CD database file
#
# Track frame offsets:
#	150
#	11715
#	26242
#	41241
#	55654
#	67317
#	80002
#	94286
#	107928
#	121926
#	132298
#	146935
#	162313
#	179025
#	195687
#	222076
#	223967
#	243734
#	257841
#	273337
#	293135
#	314830
#	331834
#
# Disc length: 4687 seconds
#
# Revision: 0
# Processed by: cddbd v1.5.2PL0 Copyright (c) Steve Scherf et al.
# Submitted via: CDex 1.70beta2
#
DISCID=82124d17
DTITLE=Miles Davis - BIRTH OF COOL
DYEAR=1900
DGENRE=Jazz
TTITLE0=Move
TTITLE1=Jeru
TTITLE2=Moon Dreams
TTITLE3=Venus De Milo
TTITLE4=Budo
TTITLE5=Deception
TTITLE6=Godchild
TTITLE7=Boplicity
TTITLE8=Rocker
TTITLE9=Israel
TTITLE10=Rouge
TTITLE11=Darn That Dream
TTITLE12=Move2
TTITLE13=Why do I love You
TTITLE14=Godchild2
TTITLE15=Symphony Sid Introduction
TTITLE16=S'il Vous Plait
TTITLE17=Moon Dreams2
TTITLE18=Budo (Hallucination)2
TTITLE19=Darn That Dream2
TTITLE20=Move3
TTITLE21=Moon Dream3
TTITLE22=Budo (Hallucinations)3
EXTD=
EXTT0=
EXTT1=
EXTT2=
EXTT3=
EXTT4=
EXTT5=
EXTT6=
EXTT7=
EXTT8=
EXTT9=
EXTT10=
EXTT11=
EXTT12=
EXTT13=
EXTT14=
EXTT15=
EXTT16=
EXTT17=
EXTT18=
EXTT19=
EXTT20=
EXTT21=
EXTT22=
PLAYORDER=
